<svg width="24" height="25" viewBox="0 0 24 25" fill="none" xmlns="http://www.w3.org/2000/svg">
<mask id="path-1-inside-1_5518_3584" fill="white">
<path d="M3.77633 13.0257C4.36155 9.90452 4.65416 8.34393 5.76506 7.42196C5.76506 7.42196 5.76506 7.42196 5.76506 7.42196C6.87596 6.5 8.46374 6.5 11.6393 6.5H12.3605C15.5361 6.5 17.1238 6.5 18.2347 7.42196C18.2347 7.42196 18.2347 7.42196 18.2347 7.42196C19.3456 8.34393 19.6382 9.90452 20.2235 13.0257C21.0464 17.4146 21.4578 19.6091 20.2582 21.0545C20.2582 21.0545 20.2582 21.0545 20.2582 21.0545C19.0586 22.5 16.8259 22.5 12.3605 22.5H11.6393C7.17389 22.5 4.94119 22.5 3.74157 21.0545C3.74156 21.0545 3.74157 21.0545 3.74157 21.0545C2.54194 19.6091 2.9534 17.4146 3.77633 13.0257Z"/>
</mask>
<path d="M3.74157 21.0545L2.5873 22.0125L3.74157 21.0545ZM3.77633 13.0257L5.25064 13.3021L3.77633 13.0257ZM20.2235 13.0257L18.7492 13.3021L20.2235 13.0257ZM20.2582 21.0545L21.4125 22.0125L20.2582 21.0545ZM18.2347 7.42196L19.1927 6.2677V6.2677L18.2347 7.42196ZM5.76506 7.42196L6.72301 8.57623L5.76506 7.42196ZM11.6393 8H12.3605V5H11.6393V8ZM12.3605 21H11.6393V24H12.3605V21ZM11.6393 21C9.36038 21 7.81316 20.9964 6.67764 20.8344C5.58312 20.6782 5.15571 20.4097 4.89583 20.0966L2.5873 22.0125C3.52704 23.1448 4.81579 23.5991 6.25388 23.8043C7.65098 24.0036 9.45282 24 11.6393 24V21ZM2.30202 12.7493C1.89908 14.8983 1.56346 16.6686 1.50192 18.0785C1.43857 19.5298 1.64756 20.8802 2.5873 22.0125L4.89583 20.0966C4.63595 19.7835 4.45085 19.3139 4.49907 18.2093C4.54908 17.0634 4.83066 15.542 5.25064 13.3021L2.30202 12.7493ZM4.89583 20.0966C4.89583 20.0966 4.89583 20.0966 4.89583 20.0966C4.89583 20.0966 4.89583 20.0966 4.89583 20.0966C4.89583 20.0966 4.89583 20.0966 4.89583 20.0966C4.89583 20.0966 4.89582 20.0966 4.89582 20.0966C4.89582 20.0966 4.89582 20.0966 4.89582 20.0966C4.89583 20.0966 4.89583 20.0966 4.89583 20.0966C4.89582 20.0966 4.89582 20.0966 4.89582 20.0966C4.89582 20.0966 4.89582 20.0966 4.89581 20.0966C4.8958 20.0966 4.89579 20.0965 4.8958 20.0966C4.89577 20.0965 4.89584 20.0966 4.89594 20.0967C2.78378 19.9001 2.5872 22.0124 2.58728 22.0125C2.58721 22.0124 2.58727 22.0125 2.5873 22.0125C2.58729 22.0125 2.58729 22.0125 2.58729 22.0125C2.5873 22.0125 2.5873 22.0125 2.5873 22.0125C2.5873 22.0125 2.5873 22.0125 2.5873 22.0125C2.5873 22.0125 2.5873 22.0125 2.5873 22.0125C2.5873 22.0125 2.5873 22.0125 2.5873 22.0125C2.5873 22.0125 2.5873 22.0125 2.5873 22.0125C2.5873 22.0125 2.5873 22.0125 2.5873 22.0125C2.5873 22.0125 2.5873 22.0125 2.5873 22.0125C2.5873 22.0125 2.5873 22.0125 2.5873 22.0125C2.5873 22.0125 2.5873 22.0125 2.5873 22.0125C2.5873 22.0125 2.5873 22.0125 2.5873 22.0125C2.5873 22.0125 2.5873 22.0125 2.5873 22.0125C2.5873 22.0125 2.5873 22.0125 2.5873 22.0125C2.5873 22.0125 2.5873 22.0125 2.58731 22.0125C2.5873 22.0125 2.58731 22.0125 2.58731 22.0125C2.5873 22.0125 2.58731 22.0125 2.58731 22.0125C2.58731 22.0125 2.58731 22.0125 2.58731 22.0125C2.58729 22.0125 2.58732 22.0125 2.58732 22.0125C2.58733 22.0125 2.58738 22.0126 2.58742 22.0126C2.58729 22.0125 4.69931 22.209 4.89613 20.097C4.89597 20.0968 4.89585 20.0966 4.8959 20.0967C4.89587 20.0966 4.89584 20.0966 4.89583 20.0966C4.89584 20.0966 4.89584 20.0966 4.89583 20.0966C4.89583 20.0966 4.89583 20.0966 4.89583 20.0966C4.89583 20.0966 4.89583 20.0966 4.89583 20.0966C4.89583 20.0966 4.89583 20.0966 4.89583 20.0966C4.89583 20.0966 4.89583 20.0966 4.89583 20.0966C4.89583 20.0966 4.89583 20.0966 4.89583 20.0966L2.5873 22.0125C2.5873 22.0125 2.5873 22.0125 2.5873 22.0125C2.5873 22.0125 2.5873 22.0125 2.5873 22.0125C2.5873 22.0125 2.5873 22.0125 2.5873 22.0125C2.5873 22.0125 2.5873 22.0125 2.5873 22.0125C2.5873 22.0125 2.5873 22.0125 2.5873 22.0125C2.5873 22.0125 2.58729 22.0125 2.58728 22.0125C2.58729 22.0125 2.58726 22.0124 2.58724 22.0124C2.58728 22.0125 2.58716 22.0123 2.587 22.0121C2.78382 19.9001 4.89584 20.0966 4.89581 20.0966C4.89575 20.0965 4.8958 20.0966 4.89581 20.0966C4.89581 20.0966 4.89584 20.0966 4.89582 20.0966C4.89582 20.0966 4.89583 20.0966 4.89582 20.0966C4.89583 20.0966 4.89583 20.0966 4.89583 20.0966C4.89583 20.0966 4.89583 20.0966 4.89583 20.0966C4.89583 20.0966 4.89583 20.0966 4.89583 20.0966C4.89583 20.0966 4.89583 20.0966 4.89583 20.0966C4.89583 20.0966 4.89583 20.0966 4.89583 20.0966C4.89583 20.0966 4.89583 20.0966 4.89583 20.0966C4.89583 20.0966 4.89583 20.0966 4.89583 20.0966C4.89583 20.0966 4.89583 20.0966 4.89583 20.0966C4.89583 20.0966 4.89583 20.0966 4.89583 20.0966C4.89583 20.0966 4.89583 20.0966 4.89583 20.0966C4.89583 20.0966 4.89583 20.0966 4.89583 20.0966C4.89583 20.0966 4.89583 20.0966 4.89583 20.0966C4.89583 20.0966 4.89583 20.0966 4.89583 20.0966C4.89583 20.0966 4.89583 20.0966 4.89583 20.0966C4.89583 20.0966 4.89583 20.0966 4.89584 20.0966C4.89584 20.0966 4.89584 20.0966 4.89585 20.0966C4.89586 20.0966 4.89592 20.0967 4.89595 20.0967C4.89593 20.0967 4.69935 22.209 2.58719 22.0124C2.58729 22.0125 2.58736 22.0126 2.58733 22.0125C2.58734 22.0125 2.58733 22.0125 2.58732 22.0125C2.58731 22.0125 2.58731 22.0125 2.58731 22.0125C2.58731 22.0125 2.58731 22.0125 2.58731 22.0125C2.5873 22.0125 2.5873 22.0125 2.5873 22.0125C2.58731 22.0125 2.58731 22.0125 2.5873 22.0125C2.58731 22.0125 2.5873 22.0125 2.5873 22.0125C2.5873 22.0125 2.5873 22.0125 2.5873 22.0125C2.5873 22.0125 2.5873 22.0125 2.5873 22.0125C2.5873 22.0125 2.5873 22.0125 2.5873 22.0125C2.5873 22.0125 2.5873 22.0125 2.5873 22.0125L4.89583 20.0966ZM18.7492 13.3021C19.1691 15.542 19.4507 17.0634 19.5007 18.2093C19.5489 19.3139 19.3638 19.7835 19.104 20.0966L21.4125 22.0125C22.3522 20.8802 22.5612 19.5298 22.4979 18.0785C22.4363 16.6686 22.1007 14.8983 21.6978 12.7493L18.7492 13.3021ZM12.3605 24C14.547 24 16.3488 24.0036 17.7459 23.8043C19.184 23.5991 20.4728 23.1448 21.4125 22.0125L19.104 20.0966C18.8441 20.4097 18.4167 20.6782 17.3221 20.8344C16.1866 20.9964 14.6394 21 12.3605 21V24ZM19.104 20.0966V20.0966C19.104 20.0966 19.104 20.0966 19.104 20.0966H19.104V20.0966C19.104 20.0966 19.104 20.0966 19.104 20.0966C19.104 20.0966 19.1039 20.0966 19.1039 20.0966C19.104 20.0966 19.1039 20.0966 19.104 20.0966C19.104 20.0966 19.1039 20.0966 19.1039 20.0967C19.1039 20.0966 19.1037 20.0969 19.1034 20.0972C19.3005 22.209 21.4125 22.0125 21.4126 22.0124C21.4124 22.0126 21.4125 22.0125 21.4124 22.0126C21.4125 22.0125 21.4125 22.0125 21.4125 22.0125C21.4125 22.0125 21.4125 22.0125 21.4124 22.0126C21.4125 22.0125 21.4125 22.0125 21.4125 22.0125C21.4125 22.0125 21.4125 22.0125 21.4125 22.0125C21.4125 22.0125 21.4125 22.0125 21.4125 22.0125L21.4125 22.0125C21.4125 22.0125 21.4125 22.0125 21.4125 22.0125C21.4125 22.0125 21.4125 22.0125 21.4125 22.0125C21.4125 22.0125 21.4125 22.0125 21.4125 22.0125C21.4125 22.0125 21.4125 22.0125 21.4125 22.0125C21.4125 22.0125 21.4125 22.0125 21.4125 22.0125C21.4125 22.0125 21.4125 22.0125 21.4125 22.0125C21.4125 22.0125 21.4125 22.0125 21.4125 22.0125C21.4125 22.0125 21.4125 22.0125 21.4125 22.0125C21.4125 22.0125 21.4125 22.0125 21.4125 22.0125C21.4125 22.0125 21.4125 22.0125 21.4125 22.0125C21.4125 22.0125 21.4125 22.0125 21.4125 22.0124C21.4125 22.0125 21.4125 22.0125 21.4125 22.0125C21.4125 22.0125 21.4125 22.0125 21.4125 22.0125C21.4125 22.0125 19.3005 22.209 19.1034 20.0972C19.104 20.0965 19.104 20.0965 19.104 20.0966C19.104 20.0966 19.104 20.0966 19.104 20.0966C19.104 20.0966 19.104 20.0966 19.104 20.0966C19.104 20.0966 19.104 20.0966 19.104 20.0966C19.104 20.0966 19.104 20.0966 19.104 20.0966C19.104 20.0966 19.104 20.0966 19.104 20.0966C19.104 20.0966 19.104 20.0966 19.104 20.0966C19.104 20.0966 19.104 20.0966 19.104 20.0966C19.104 20.0966 19.104 20.0966 19.104 20.0966L21.4125 22.0125C21.4125 22.0125 21.4125 22.0125 21.4125 22.0125C21.4125 22.0125 21.4125 22.0125 21.4125 22.0125C21.4125 22.0125 21.4125 22.0125 21.4125 22.0125C21.4125 22.0125 21.4125 22.0125 21.4125 22.0125C21.4125 22.0125 21.4125 22.0125 21.4125 22.0125C21.4125 22.0125 21.4125 22.0125 21.4125 22.0125C21.4125 22.0125 21.4125 22.0125 21.4125 22.0125C21.4125 22.0125 21.4125 22.0125 21.4125 22.0125C21.4125 22.0125 21.4124 22.0126 21.4124 22.0126C21.216 19.9001 19.104 20.0965 19.1039 20.0967C19.1039 20.0966 19.104 20.0966 19.104 20.0965C19.1039 20.0966 19.1039 20.0966 19.1039 20.0966C19.1039 20.0966 19.104 20.0966 19.104 20.0966C19.104 20.0966 19.104 20.0966 19.104 20.0966C19.104 20.0966 19.104 20.0966 19.104 20.0966C19.104 20.0966 19.104 20.0966 19.104 20.0966C19.104 20.0966 19.104 20.0966 19.104 20.0966C19.104 20.0966 19.104 20.0966 19.104 20.0966C19.104 20.0966 19.104 20.0966 19.104 20.0966C19.104 20.0966 19.104 20.0966 19.104 20.0966C19.104 20.0966 19.104 20.0966 19.104 20.0966C19.104 20.0966 19.104 20.0966 19.104 20.0966C19.104 20.0966 19.104 20.0966 19.104 20.0966C19.104 20.0966 19.104 20.0966 19.104 20.0966C19.104 20.0966 19.104 20.0966 19.104 20.0966C19.104 20.0966 19.104 20.0966 19.104 20.0966C19.104 20.0966 19.104 20.0966 19.104 20.0966C19.104 20.0966 19.104 20.0966 19.104 20.0966C19.104 20.0966 19.104 20.0966 19.104 20.0966C19.104 20.0966 19.104 20.0966 19.104 20.0966C19.104 20.0966 19.104 20.0966 19.104 20.0966C19.104 20.0966 19.104 20.0966 19.104 20.0966C19.104 20.0966 19.104 20.0966 19.104 20.0966C19.1039 20.0966 19.1039 20.0966 19.1039 20.0966C19.104 20.0966 19.1041 20.0965 19.1042 20.0963C19.104 20.0965 21.216 19.9001 21.413 22.0119C21.4128 22.0122 21.4125 22.0124 21.4126 22.0124C21.4125 22.0124 21.4125 22.0125 21.4125 22.0125C21.4125 22.0125 21.4125 22.0125 21.4125 22.0125C21.4125 22.0125 21.4125 22.0125 21.4125 22.0125C21.4125 22.0125 21.4125 22.0125 21.4125 22.0125C21.4125 22.0125 21.4125 22.0125 21.4125 22.0125C21.4125 22.0125 21.4125 22.0125 21.4125 22.0125C21.4125 22.0125 21.4125 22.0125 21.4125 22.0125C21.4125 22.0125 21.4125 22.0125 21.4125 22.0125L19.104 20.0966ZM12.3605 8C13.9863 8 15.0684 8.00267 15.8879 8.10393C16.6663 8.20009 17.025 8.36728 17.2768 8.57623L19.1927 6.2677C18.3336 5.55468 17.343 5.26089 16.2558 5.12657C15.2098 4.99733 13.9102 5 12.3605 5V8ZM21.6978 12.7493C21.4122 11.226 21.1753 9.94823 20.8555 8.94399C20.5231 7.90019 20.0518 6.98072 19.1927 6.2677L17.2768 8.57623C17.5285 8.78517 17.759 9.10698 17.9969 9.85425C18.2475 10.6411 18.4495 11.7042 18.7492 13.3021L21.6978 12.7493ZM17.2768 8.57623C17.2768 8.57623 17.2768 8.57623 17.2768 8.57623V8.57623C17.2768 8.57623 17.2768 8.57623 17.2768 8.57623C17.2768 8.57623 17.2768 8.57623 17.2768 8.57623C17.2768 8.57624 17.2768 8.57624 17.2768 8.57625C17.2769 8.57629 17.2768 8.57623 17.2767 8.57619C19.3891 8.37981 19.1927 6.26773 19.1928 6.26775C19.1927 6.26773 19.1927 6.26771 19.1927 6.26772C19.1927 6.26771 19.1927 6.2677 19.1927 6.2677C19.1927 6.2677 19.1927 6.2677 19.1927 6.2677C19.1927 6.2677 19.1927 6.2677 19.1927 6.2677C19.1927 6.2677 19.1927 6.2677 19.1927 6.2677C19.1927 6.2677 19.1927 6.2677 19.1927 6.2677C19.1927 6.2677 19.1927 6.2677 19.1927 6.2677C19.1927 6.2677 19.1927 6.2677 19.1927 6.2677C19.1927 6.2677 19.1927 6.2677 19.1927 6.2677C19.1927 6.2677 19.1927 6.2677 19.1927 6.2677C19.1927 6.2677 19.1927 6.2677 19.1927 6.2677C19.1927 6.2677 19.1927 6.2677 19.1927 6.2677C19.1927 6.2677 19.1927 6.2677 19.1927 6.2677C19.1927 6.2677 19.1927 6.26769 19.1927 6.26769C19.1927 6.2677 19.1927 6.2677 19.1927 6.2677C19.1927 6.26769 19.1927 6.26769 19.1927 6.2677C19.1927 6.26769 19.1927 6.26769 19.1927 6.26772C19.1926 6.2676 17.0806 6.4638 17.2763 8.57579C17.2767 8.57616 17.2769 8.57633 17.2768 8.57622C17.2768 8.57622 17.2768 8.57622 17.2768 8.57622C17.2768 8.57622 17.2768 8.57622 17.2768 8.57622C17.2768 8.57622 17.2768 8.57623 17.2768 8.57623C17.2768 8.57623 17.2768 8.57622 17.2768 8.57623C17.2768 8.57623 17.2768 8.57623 17.2768 8.57623C17.2768 8.57623 17.2768 8.57623 17.2768 8.57623C17.2768 8.57623 17.2768 8.57623 17.2768 8.57623L19.1927 6.2677C19.1927 6.2677 19.1927 6.2677 19.1927 6.2677C19.1927 6.2677 19.1927 6.2677 19.1927 6.2677C19.1927 6.2677 19.1927 6.2677 19.1927 6.2677C19.1927 6.2677 19.1927 6.2677 19.1927 6.2677C19.1927 6.2677 19.1927 6.2677 19.1927 6.2677C19.1927 6.2677 19.1927 6.2677 19.1927 6.2677C19.1927 6.2677 19.1927 6.2677 19.1927 6.26771C19.1926 6.26759 19.1928 6.26777 19.1929 6.26789C19.3888 8.38012 17.2769 8.57632 17.2769 8.57632C17.2768 8.57623 17.2768 8.57624 17.2768 8.57622C17.2768 8.57623 17.2768 8.57624 17.2768 8.57623C17.2768 8.57622 17.2768 8.57623 17.2768 8.57624C17.2768 8.57623 17.2768 8.57623 17.2768 8.57623C17.2768 8.57623 17.2768 8.57623 17.2768 8.57623C17.2768 8.57623 17.2768 8.57623 17.2768 8.57623C17.2768 8.57623 17.2768 8.57623 17.2768 8.57623V8.57623C17.2768 8.57623 17.2768 8.57623 17.2768 8.57623C17.2768 8.57623 17.2768 8.57623 17.2768 8.57623C17.2768 8.57623 17.2768 8.57622 17.2768 8.57622C17.2768 8.57622 17.2768 8.57622 17.2768 8.57622C17.2768 8.57623 17.2768 8.57622 17.2768 8.57622C17.2768 8.57622 17.2768 8.57621 17.2768 8.5762C17.2768 8.57621 17.2767 8.5762 17.2767 8.57616C17.2767 8.5762 17.0804 6.46412 19.1925 6.26752C19.1927 6.2677 19.1926 6.26764 19.1927 6.26768C19.1927 6.26768 19.1927 6.26769 19.1927 6.2677C19.1927 6.2677 19.1927 6.2677 19.1927 6.2677C19.1927 6.2677 19.1927 6.2677 19.1927 6.2677C19.1927 6.2677 19.1927 6.2677 19.1927 6.2677C19.1927 6.2677 19.1927 6.2677 19.1927 6.2677L17.2768 8.57623ZM11.6393 5C10.0895 5 8.78997 4.99733 7.744 5.12657C6.65682 5.26089 5.66624 5.55468 4.80711 6.2677L6.72301 8.57623C6.97477 8.36728 7.33354 8.20009 8.11186 8.10393C8.9314 8.00267 10.0135 8 11.6393 8V5ZM5.25064 13.3021C5.55025 11.7042 5.7523 10.6411 6.00285 9.85425C6.24081 9.10698 6.47125 8.78517 6.72301 8.57623L4.8071 6.2677C3.94797 6.98072 3.47666 7.90019 3.14428 8.94399C2.8245 9.94823 2.58762 11.226 2.30202 12.7493L5.25064 13.3021ZM4.80711 6.2677C4.80711 6.2677 4.80711 6.2677 4.80711 6.2677C4.80711 6.2677 4.80711 6.2677 4.80711 6.2677C4.80711 6.2677 4.80711 6.2677 4.80711 6.2677C4.80711 6.2677 4.80711 6.2677 4.80711 6.2677C4.80711 6.2677 4.80711 6.26769 4.80711 6.26769C4.80711 6.26769 4.80712 6.26769 4.80712 6.26769C4.80712 6.26769 4.80712 6.26769 4.80712 6.26769C4.80704 6.26775 4.80717 6.26764 4.80727 6.26756C6.91931 6.464 6.72307 8.57617 6.72304 8.5762C6.72304 8.5762 6.72303 8.57621 6.72303 8.57621C6.72303 8.57621 6.72301 8.57622 6.72301 8.57623C6.72303 8.57621 6.72302 8.57622 6.72302 8.57622C6.72302 8.57622 6.72302 8.57622 6.72302 8.57622C6.72302 8.57622 6.72302 8.57622 6.72301 8.57622C6.72301 8.57622 6.72301 8.57623 6.72301 8.57623C6.72301 8.57623 6.72301 8.57623 6.72301 8.57623C6.72301 8.57623 6.72301 8.57623 6.72301 8.57623C6.72301 8.57623 6.72301 8.57623 6.72301 8.57623L6.72301 8.57623C6.72301 8.57623 6.72301 8.57623 6.72301 8.57623C6.72301 8.57623 6.72301 8.57623 6.72301 8.57623C6.72301 8.57623 6.72301 8.57623 6.72301 8.57623C6.72301 8.57623 6.72301 8.57623 6.72301 8.57623C6.72301 8.57623 6.72301 8.57623 6.72301 8.57623C6.72301 8.57623 6.72301 8.57623 6.72301 8.57623C6.72301 8.57623 6.72301 8.57623 6.72301 8.57623C6.72301 8.57623 6.72301 8.57623 6.72301 8.57623C6.72301 8.57623 6.72301 8.57623 6.723 8.57623C6.72301 8.57623 6.723 8.57623 6.723 8.57624C6.723 8.57624 6.72299 8.57625 6.72299 8.57625C6.72298 8.57625 6.72299 8.57625 6.723 8.57624C6.72295 8.57628 4.61085 8.37998 4.80687 6.2679C4.80697 6.26781 4.80707 6.26772 4.80708 6.26772C4.8071 6.26771 4.80709 6.26771 4.80708 6.26772C4.80709 6.26771 4.8071 6.2677 4.8071 6.26771C4.8071 6.2677 4.8071 6.2677 4.8071 6.2677C4.8071 6.2677 4.8071 6.2677 4.8071 6.2677C4.8071 6.2677 4.8071 6.2677 4.8071 6.2677C4.8071 6.2677 4.8071 6.2677 4.8071 6.2677C4.8071 6.2677 4.8071 6.2677 4.8071 6.2677L6.72301 8.57623C6.72301 8.57623 6.72301 8.57623 6.72301 8.57623C6.72301 8.57623 6.72301 8.57623 6.72301 8.57623C6.72301 8.57623 6.72301 8.57623 6.72301 8.57622C6.72301 8.57622 6.72301 8.57622 6.72302 8.57622C6.72302 8.57622 6.72302 8.57622 6.72302 8.57622C6.72302 8.57622 6.72302 8.57622 6.72303 8.57621C6.72303 8.57621 6.72302 8.57622 6.72302 8.57622C6.72304 8.5762 6.72315 8.57611 6.72325 8.57603C6.91927 6.46395 4.80717 6.26765 4.80712 6.26769C4.80713 6.26768 4.80713 6.26767 4.80713 6.26768C4.80713 6.26768 4.80712 6.26768 4.80712 6.26769C4.80711 6.26769 4.80711 6.2677 4.80711 6.2677C4.80711 6.26769 4.80711 6.2677 4.80711 6.2677C4.80711 6.2677 4.80711 6.2677 4.80711 6.2677C4.80711 6.2677 4.80711 6.2677 4.80711 6.2677C4.80711 6.2677 4.80711 6.2677 4.80711 6.2677C4.80711 6.2677 4.80711 6.2677 4.80711 6.2677C4.80711 6.2677 4.80711 6.2677 4.80711 6.2677C4.80711 6.2677 4.80711 6.2677 4.80711 6.2677C4.80711 6.2677 4.80711 6.2677 4.80711 6.2677C4.80711 6.2677 4.80711 6.2677 4.80711 6.2677C4.8071 6.2677 4.8071 6.2677 4.8071 6.2677C4.8071 6.2677 4.8071 6.2677 4.8071 6.2677C4.8071 6.2677 4.8071 6.2677 4.8071 6.2677C4.8071 6.2677 4.8071 6.2677 4.8071 6.2677C4.8071 6.2677 4.8071 6.2677 4.8071 6.2677C4.8071 6.2677 4.8071 6.2677 4.8071 6.2677C4.8071 6.2677 4.8071 6.2677 4.8071 6.2677C4.8071 6.2677 4.8071 6.2677 4.8071 6.26771C4.80709 6.26771 4.80709 6.26771 4.80709 6.26771C4.8071 6.2677 4.80709 6.26771 4.80707 6.26772C4.80709 6.26771 4.80707 6.26772 4.80706 6.26773C4.80704 6.26775 4.6108 8.37993 6.72294 8.57629C6.72294 8.57628 6.72308 8.57617 6.72299 8.57624C6.723 8.57624 6.723 8.57624 6.723 8.57624C6.723 8.57624 6.723 8.57623 6.723 8.57623C6.72301 8.57623 6.72301 8.57623 6.72301 8.57623C6.72301 8.57623 6.72301 8.57623 6.72301 8.57623C6.72301 8.57623 6.72301 8.57623 6.72301 8.57623L6.72301 8.57623C6.72301 8.57623 6.72301 8.57623 6.72301 8.57623L4.80711 6.2677Z" fill="#ECECEC" mask="url(#path-1-inside-1_5518_3584)"/>
<path d="M10 14.8C10.5207 15.2686 10.8126 15.5314 11.3333 16L14 13" stroke="#ECECEC" stroke-width="1.5" stroke-linecap="round" stroke-linejoin="round"/>
<path d="M9 6.5V5.5C9 3.84315 10.3431 2.5 12 2.5C13.6569 2.5 15 3.84315 15 5.5V6.5" stroke="#ECECEC" stroke-width="1.5" stroke-linecap="round"/>
</svg>
