<svg width="24" height="25" viewBox="0 0 24 25" fill="none" xmlns="http://www.w3.org/2000/svg">
<path d="M2.75 12.5C2.75 10.5932 2.75159 9.23851 2.88976 8.21085C3.02502 7.20476 3.27869 6.62511 3.7019 6.2019C4.12511 5.77869 4.70476 5.52502 5.71085 5.38976C6.73851 5.25159 8.09318 5.25 10 5.25H14C15.9068 5.25 17.2615 5.25159 18.2892 5.38976C19.2952 5.52502 19.8749 5.77869 20.2981 6.2019C20.7213 6.62511 20.975 7.20476 21.1102 8.21085C21.2484 9.23851 21.25 10.5932 21.25 12.5V14.5C21.25 16.4068 21.2484 17.7615 21.1102 18.7892C20.975 19.7952 20.7213 20.3749 20.2981 20.7981C19.8749 21.2213 19.2952 21.475 18.2892 21.6102C17.2615 21.7484 15.9068 21.75 14 21.75H10C8.09318 21.75 6.73851 21.7484 5.71085 21.6102C4.70476 21.475 4.12511 21.2213 3.7019 20.7981C3.27869 20.3749 3.02502 19.7952 2.88976 18.7892C2.75159 17.7615 2.75 16.4068 2.75 14.5V12.5Z" stroke="#ECECEC" stroke-width="1.5"/>
<path d="M7 4.5V3" stroke="#ECECEC" stroke-width="1.5" stroke-linecap="round"/>
<path d="M17 4.5V3" stroke="#ECECEC" stroke-width="1.5" stroke-linecap="round"/>
<path d="M2.5 9.5H21.5" stroke="#ECECEC" stroke-width="1.5" stroke-linecap="round"/>
<path d="M18 17.5C18 18.0523 17.5523 18.5 17 18.5C16.4477 18.5 16 18.0523 16 17.5C16 16.9477 16.4477 16.5 17 16.5C17.5523 16.5 18 16.9477 18 17.5Z" fill="#ECECEC"/>
<path d="M18 13.5C18 14.0523 17.5523 14.5 17 14.5C16.4477 14.5 16 14.0523 16 13.5C16 12.9477 16.4477 12.5 17 12.5C17.5523 12.5 18 12.9477 18 13.5Z" fill="#ECECEC"/>
<path d="M13 17.5C13 18.0523 12.5523 18.5 12 18.5C11.4477 18.5 11 18.0523 11 17.5C11 16.9477 11.4477 16.5 12 16.5C12.5523 16.5 13 16.9477 13 17.5Z" fill="#ECECEC"/>
<path d="M13 13.5C13 14.0523 12.5523 14.5 12 14.5C11.4477 14.5 11 14.0523 11 13.5C11 12.9477 11.4477 12.5 12 12.5C12.5523 12.5 13 12.9477 13 13.5Z" fill="#ECECEC"/>
<path d="M8 17.5C8 18.0523 7.55228 18.5 7 18.5C6.44772 18.5 6 18.0523 6 17.5C6 16.9477 6.44772 16.5 7 16.5C7.55228 16.5 8 16.9477 8 17.5Z" fill="#ECECEC"/>
<path d="M8 13.5C8 14.0523 7.55228 14.5 7 14.5C6.44772 14.5 6 14.0523 6 13.5C6 12.9477 6.44772 12.5 7 12.5C7.55228 12.5 8 12.9477 8 13.5Z" fill="#ECECEC"/>
</svg>
