<svg width="24" height="25" viewBox="0 0 24 25" fill="none" xmlns="http://www.w3.org/2000/svg">
<path d="M15.6468 15.5462L16.1081 16.1376L15.6468 15.5462C15.5021 15.659 15.3455 15.7558 15.1798 15.8348C15.0489 15.8972 14.9064 15.9461 14.5024 16.0807L13.2628 16.4939L12.8777 16.6223L13.0061 16.2372L13.4193 14.9976C13.5539 14.5936 13.6028 14.4511 13.6652 14.3202C13.7442 14.1545 13.841 13.9979 13.9538 13.8532C14.043 13.7388 14.1487 13.6314 14.4497 13.3303L18.7104 9.06966L19.1738 8.60622C19.6488 8.13126 20.4188 8.13126 20.8938 8.60622C21.3687 9.08118 21.3687 9.85124 20.8938 10.3262L20.4303 10.7896L16.1697 15.0503C15.8686 15.3513 15.7612 15.457 15.6468 15.5462Z" stroke="#F7F4EA" stroke-width="1.5"/>
<path d="M8 13.5H10.5" stroke="#F7F4EA" stroke-width="1.5" stroke-linecap="round"/>
<path d="M8 9.5H14.5" stroke="#F7F4EA" stroke-width="1.5" stroke-linecap="round"/>
<path d="M8 17.5H9.5" stroke="#F7F4EA" stroke-width="1.5" stroke-linecap="round"/>
<path d="M19.8284 3.67157C18.6569 2.5 16.7712 2.5 13 2.5H11C7.22876 2.5 5.34315 2.5 4.17157 3.67157C3 4.84315 3 6.72876 3 10.5V14.5C3 18.2712 3 20.1569 4.17157 21.3284C5.34315 22.5 7.22876 22.5 11 22.5H13C16.7712 22.5 18.6569 22.5 19.8284 21.3284C20.7715 20.3853 20.9554 18.9796 20.9913 16.5" stroke="#F7F4EA" stroke-width="1.5" stroke-linecap="round"/>
</svg>
