<svg width="24" height="25" viewBox="0 0 24 25" fill="none" xmlns="http://www.w3.org/2000/svg">
<mask id="path-1-inside-1_5518_3629" fill="white">
<path d="M13.6288 20.9718L13.0867 21.8877C12.6035 22.704 11.3965 22.704 10.9133 21.8877L10.3712 20.9718C9.95073 20.2614 9.74049 19.9063 9.40279 19.7098C9.06509 19.5134 8.63992 19.5061 7.78958 19.4915C6.53422 19.4698 5.74689 19.3929 5.08658 19.1194C3.86144 18.6119 2.88807 17.6386 2.3806 16.4134C2 15.4946 2 14.3297 2 12V11C2 7.72657 2 6.08985 2.7368 4.88751C3.14908 4.21473 3.71473 3.64908 4.38751 3.2368C5.58985 2.5 7.22657 2.5 10.5 2.5H13.5C16.7734 2.5 18.4101 2.5 19.6125 3.2368C20.2853 3.64908 20.8509 4.21473 21.2632 4.88751C22 6.08985 22 7.72657 22 11V12C22 14.3297 22 15.4946 21.6194 16.4134C21.1119 17.6386 20.1386 18.6119 18.9134 19.1194C18.2531 19.3929 17.4658 19.4698 16.2104 19.4915C15.36 19.5061 14.9349 19.5134 14.5972 19.7098C14.2595 19.9062 14.0492 20.2614 13.6288 20.9718Z"/>
</mask>
<path d="M13.0867 21.8877L14.3775 22.6517H14.3775L13.0867 21.8877ZM13.6288 20.9718L12.3379 20.2078L13.6288 20.9718ZM10.3712 20.9718L9.08038 21.7359H9.08038L10.3712 20.9718ZM10.9133 21.8877L12.2041 21.1237L10.9133 21.8877ZM2.3806 16.4134L3.76642 15.8394H3.76642L2.3806 16.4134ZM7.78958 19.4915L7.76374 20.9912L7.78958 19.4915ZM5.08658 19.1194L4.51256 20.5052L4.51256 20.5052L5.08658 19.1194ZM21.6194 16.4134L23.0052 16.9874V16.9874L21.6194 16.4134ZM16.2104 19.4915L16.1845 17.9917L16.2104 19.4915ZM18.9134 19.1194L19.4874 20.5052H19.4874L18.9134 19.1194ZM19.6125 3.2368L18.8287 4.51576L19.6125 3.2368ZM21.2632 4.88751L22.5422 4.10376L22.5422 4.10376L21.2632 4.88751ZM4.38751 3.2368L3.60376 1.95784L3.60376 1.95784L4.38751 3.2368ZM2.7368 4.88751L1.45784 4.10376H1.45784L2.7368 4.88751ZM9.40279 19.7098L10.1569 18.4132L10.1569 18.4132L9.40279 19.7098ZM14.3775 22.6517L14.9196 21.7359L12.3379 20.2078L11.7958 21.1237L14.3775 22.6517ZM9.08038 21.7359L9.62248 22.6517L12.2041 21.1237L11.662 20.2078L9.08038 21.7359ZM11.7958 21.1237C11.85 21.0322 11.9449 20.9999 12 20.9999C12.055 20.9999 12.15 21.0322 12.2041 21.1237L9.62248 22.6517C10.6865 24.4493 13.3135 24.4493 14.3775 22.6517L11.7958 21.1237ZM10.5 4H13.5V1H10.5V4ZM20.5 11V12H23.5V11H20.5ZM3.5 12V11H0.5V12H3.5ZM0.5 12C0.5 13.1443 0.499188 14.0777 0.551055 14.8379C0.603841 15.6115 0.716157 16.3148 0.994783 16.9874L3.76642 15.8394C3.66445 15.5932 3.58646 15.2546 3.5441 14.6337C3.50081 13.9993 3.5 13.1854 3.5 12H0.5ZM7.81542 17.9917C6.5599 17.97 6.03158 17.8872 5.66061 17.7336L4.51256 20.5052C5.4622 20.8986 6.50853 20.9696 7.76374 20.9912L7.81542 17.9917ZM0.994783 16.9874C1.65449 18.5801 2.91988 19.8455 4.51256 20.5052L5.66061 17.7336C4.80301 17.3783 4.12165 16.697 3.76642 15.8394L0.994783 16.9874ZM20.5 12C20.5 13.1854 20.4992 13.9993 20.4559 14.6337C20.4135 15.2546 20.3356 15.5932 20.2336 15.8394L23.0052 16.9874C23.2838 16.3148 23.3962 15.6115 23.4489 14.8379C23.5008 14.0777 23.5 13.1443 23.5 12H20.5ZM16.2362 20.9912C17.4914 20.9696 18.5378 20.8986 19.4874 20.5052L18.3394 17.7336C17.9684 17.8872 17.4401 17.97 16.1845 17.9917L16.2362 20.9912ZM20.2336 15.8394C19.8783 16.697 19.197 17.3783 18.3394 17.7336L19.4874 20.5052C21.0801 19.8455 22.3455 18.5801 23.0052 16.9874L20.2336 15.8394ZM13.5 4C15.1658 4 16.3097 4.00158 17.1909 4.08537C18.0498 4.16703 18.5029 4.31606 18.8287 4.51576L20.3962 1.95784C19.5198 1.42074 18.5533 1.20137 17.4749 1.09883C16.4188 0.998417 15.1077 1 13.5 1V4ZM23.5 11C23.5 9.39233 23.5016 8.08124 23.4012 7.02512C23.2986 5.94667 23.0793 4.98023 22.5422 4.10376L19.9842 5.67125C20.1839 5.99713 20.333 6.45022 20.4146 7.30908C20.4984 8.19025 20.5 9.33424 20.5 11H23.5ZM18.8287 4.51576C19.2997 4.80435 19.6956 5.20031 19.9842 5.67126L22.5422 4.10376C22.0062 3.22915 21.2709 2.4938 20.3962 1.95784L18.8287 4.51576ZM10.5 1C8.89233 1 7.58124 0.998417 6.52512 1.09883C5.44667 1.20137 4.48023 1.42074 3.60376 1.95784L5.17125 4.51576C5.49713 4.31606 5.95022 4.16703 6.80908 4.08537C7.69025 4.00158 8.83424 4 10.5 4V1ZM3.5 11C3.5 9.33424 3.50158 8.19025 3.58537 7.30908C3.66703 6.45022 3.81606 5.99713 4.01576 5.67125L1.45784 4.10376C0.920738 4.98023 0.701374 5.94667 0.598835 7.02512C0.498417 8.08124 0.5 9.39233 0.5 11H3.5ZM3.60376 1.95784C2.72915 2.4938 1.9938 3.22915 1.45784 4.10376L4.01576 5.67125C4.30435 5.20031 4.70031 4.80435 5.17125 4.51576L3.60376 1.95784ZM11.662 20.2078C11.4662 19.8769 11.2674 19.538 11.0682 19.2646C10.8504 18.9659 10.5687 18.6527 10.1569 18.4132L8.64864 21.0065C8.57461 20.9634 8.56681 20.926 8.64375 21.0316C8.73914 21.1625 8.85572 21.3563 9.08038 21.7359L11.662 20.2078ZM7.76374 20.9912C8.21676 20.999 8.45411 21.0046 8.62334 21.0234C8.76475 21.039 8.72762 21.0524 8.64865 21.0065L10.1569 18.4132C9.74026 18.1709 9.3217 18.0824 8.95352 18.0416C8.61315 18.0039 8.21274 17.9985 7.81542 17.9917L7.76374 20.9912ZM14.9196 21.7359C15.1442 21.3563 15.2608 21.1625 15.3562 21.0316C15.4331 20.926 15.4253 20.9634 15.3513 21.0065L13.843 18.4132C13.4313 18.6527 13.1495 18.9659 12.9318 19.2646C12.7325 19.538 12.5337 19.8769 12.3379 20.2078L14.9196 21.7359ZM16.1845 17.9917C15.7872 17.9985 15.3868 18.0039 15.0464 18.0416C14.6783 18.0824 14.2597 18.1709 13.843 18.4132L15.3513 21.0065C15.2723 21.0524 15.2352 21.039 15.3766 21.0234C15.5458 21.0046 15.7832 20.999 16.2362 20.9912L16.1845 17.9917Z" fill="#F7F4EA" mask="url(#path-1-inside-1_5518_3629)"/>
<path d="M8 9.5H16" stroke="#F7F4EA" stroke-width="1.5" stroke-linecap="round"/>
<path d="M8 13H13.5" stroke="#F7F4EA" stroke-width="1.5" stroke-linecap="round"/>
</svg>
