<svg width="24" height="25" viewBox="0 0 24 25" fill="none" xmlns="http://www.w3.org/2000/svg">
<path d="M2.5 12.5C2.5 10.1288 2.50106 8.40077 2.6786 7.08026C2.8542 5.77414 3.19417 4.94187 3.81802 4.31802C4.44187 3.69417 5.27414 3.3542 6.58026 3.1786C7.90077 3.00106 9.62884 3 12 3C14.3712 3 16.0992 3.00106 17.4197 3.1786C18.7259 3.3542 19.5581 3.69417 20.182 4.31802C20.8058 4.94187 21.1458 5.77414 21.3214 7.08026C21.4989 8.40077 21.5 10.1288 21.5 12.5C21.5 14.8712 21.4989 16.5992 21.3214 17.9197C21.1458 19.2259 20.8058 20.0581 20.182 20.682C19.5581 21.3058 18.7259 21.6458 17.4197 21.8214C16.0992 21.9989 14.3712 22 12 22C9.62884 22 7.90077 21.9989 6.58026 21.8214C5.27414 21.6458 4.44187 21.3058 3.81802 20.682C3.19417 20.0581 2.8542 19.2259 2.6786 17.9197C2.50106 16.5992 2.5 14.8712 2.5 12.5Z" stroke="#F7F4EA"/>
<path d="M7 18.5V9.5" stroke="#F7F4EA" stroke-linecap="round"/>
<path d="M12 18.5V6.5" stroke="#F7F4EA" stroke-linecap="round"/>
<path d="M17 18.5V13.5" stroke="#F7F4EA" stroke-linecap="round"/>
</svg>
