<svg width="24" height="25" viewBox="0 0 24 25" fill="none" xmlns="http://www.w3.org/2000/svg">
<path d="M4.75 6.5C4.75 4.15279 6.65279 2.25 9 2.25C11.3472 2.25 13.25 4.15279 13.25 6.5C13.25 8.84721 11.3472 10.75 9 10.75C6.65279 10.75 4.75 8.84721 4.75 6.5ZM9 2.75C6.92893 2.75 5.25 4.42893 5.25 6.5C5.25 8.57107 6.92893 10.25 9 10.25C11.0711 10.25 12.75 8.57107 12.75 6.5C12.75 4.42893 11.0711 2.75 9 2.75ZM14.75 3.5C14.75 3.36193 14.8619 3.25 15 3.25C16.7949 3.25 18.25 4.70507 18.25 6.5C18.25 8.29493 16.7949 9.75 15 9.75C14.8619 9.75 14.75 9.63807 14.75 9.5C14.75 9.36193 14.8619 9.25 15 9.25C16.5188 9.25 17.75 8.01878 17.75 6.5C17.75 4.98122 16.5188 3.75 15 3.75C14.8619 3.75 14.75 3.63807 14.75 3.5ZM3.92622 14.4545C5.23716 13.7054 7.03153 13.25 9 13.25C10.9685 13.25 12.7628 13.7054 14.0738 14.4545C15.3791 15.2004 16.25 16.2681 16.25 17.5C16.25 18.7319 15.3791 19.7996 14.0738 20.5455C12.7628 21.2946 10.9685 21.75 9 21.75C7.03153 21.75 5.23716 21.2946 3.92622 20.5455C2.62094 19.7996 1.75 18.7319 1.75 17.5C1.75 16.2681 2.62094 15.2004 3.92622 14.4545ZM4.17429 14.8886C2.94248 15.5925 2.25 16.5256 2.25 17.5C2.25 18.4744 2.94248 19.4075 4.17429 20.1114C5.39681 20.81 7.10242 21.25 9 21.25C10.8976 21.25 12.6032 20.81 13.8257 20.1114C15.0575 19.4075 15.75 18.4744 15.75 17.5C15.75 16.5256 15.0575 15.5925 13.8257 14.8886C12.6032 14.19 10.8976 13.75 9 13.75C7.10242 13.75 5.39681 14.19 4.17429 14.8886ZM17.7558 14.4464C17.7854 14.3116 17.9187 14.2262 18.0536 14.2558C18.959 14.4544 19.7479 14.8079 20.3162 15.2729C20.8851 15.7384 21.25 16.3321 21.25 17C21.25 17.6021 20.9528 18.145 20.4775 18.5866C20.0035 19.0268 19.3417 19.3781 18.5721 19.6098C18.4399 19.6496 18.3004 19.5747 18.2606 19.4425C18.2208 19.3103 18.2957 19.1709 18.4279 19.1311C19.1446 18.9152 19.7328 18.5959 20.1372 18.2202C20.542 17.8442 20.75 17.4254 20.75 17C20.75 16.5292 20.4946 16.0649 19.9995 15.6598C19.5064 15.2564 18.7954 14.9304 17.9464 14.7442C17.8116 14.7146 17.7262 14.5813 17.7558 14.4464Z" stroke="#ECECEC" stroke-linecap="round"/>
</svg>
